<svg width="142" height="39" viewBox="0 0 142 39" fill="none" xmlns="http://www.w3.org/2000/svg">
<g clip-path="url(#clip0_141_3727)">
<path d="M45.4424 20.7449L41.7834 24.3622L32.125 14.8464C31.3668 14.0969 31.3668 12.8586 32.125 12.109L34.3995 9.86043C35.1577 9.1109 36.4103 9.1109 37.2014 9.86043L45.4424 18.0075C46.2006 18.757 46.2006 19.9954 45.4424 20.7449Z" fill="url(#paint0_linear_141_3727)"/>
<path d="M10.6336 17.1276L12.9082 14.879C13.6663 14.1295 14.919 14.1295 15.7101 14.879L23.9511 23.0261C24.7093 23.7757 24.7093 25.014 23.9511 25.7961L21.6766 28.0447C20.9184 28.7943 19.6658 28.7943 18.8746 28.0447L10.6336 19.8976C9.87547 19.1481 9.87547 17.9098 10.6336 17.1276Z" fill="url(#paint1_linear_141_3727)"/>
<path d="M17.7526 20.1256C17.7526 18.0073 18.1812 16.1172 19.0712 14.4878C19.9612 12.8258 21.1809 11.5223 22.7302 10.5772C24.2795 9.63214 26.0266 9.14331 28.0044 9.14331C29.9493 9.14331 31.6964 9.59955 33.2127 10.5446C34.7291 11.4897 35.9487 12.7932 36.8388 14.4226C37.7288 16.052 38.1573 17.9748 38.1573 20.0604C38.1573 22.1786 37.7288 24.0362 36.8388 25.6982C35.9487 27.3602 34.762 28.6311 33.2127 29.5762C31.6634 30.5213 29.9493 31.0427 28.0044 31.0427C26.0595 31.0427 24.3125 30.5864 22.7302 29.6414C21.1809 28.6963 19.9612 27.3928 19.0712 25.7634C18.2141 24.1014 17.7526 22.2438 17.7526 20.1256ZM24.5762 20.093C24.5762 20.7448 24.708 21.2988 25.0047 21.7876C25.2684 22.2764 25.664 22.6349 26.1914 22.8956C26.7188 23.1563 27.3122 23.2867 28.0044 23.2867C28.6967 23.2867 29.29 23.1563 29.8174 22.863C30.3449 22.6023 30.7404 22.2112 31.0041 21.755C31.2349 21.2988 31.3668 20.7448 31.3668 20.093C31.3668 19.4738 31.2349 18.9198 30.9382 18.431C30.6415 17.9422 30.246 17.5511 29.7186 17.2904C29.2241 16.9971 28.5978 16.8667 27.9385 16.8667C27.2792 16.8667 26.6859 16.9971 26.1914 17.2904C25.664 17.5511 25.2684 17.9422 25.0047 18.431C24.708 18.8872 24.5762 19.4412 24.5762 20.093Z" fill="white"/>
<path d="M68.1549 29.9346C65.8803 29.9346 63.9025 29.511 62.1884 28.6637C60.4742 27.8164 59.1227 26.6432 58.1668 25.1116C57.2108 23.5799 56.7164 21.8201 56.7164 19.8648C56.7164 17.9095 57.1779 16.1824 58.1338 14.6507C59.0898 13.1191 60.3424 11.9459 61.9906 11.066C63.6388 10.1861 65.4848 9.76245 67.5285 9.76245C69.5723 9.76245 71.3524 10.1861 72.9017 11.0008C74.451 11.8155 75.6706 12.9561 76.5607 14.4226C77.4507 15.8891 77.8792 17.5511 77.8792 19.4412C77.8792 19.8323 77.8463 20.2559 77.8133 20.6795C77.7803 21.1032 77.6814 21.6246 77.5496 22.1786L59.9798 22.309V17.5837L74.6488 17.4533L71.0557 19.539C71.0557 18.4961 70.9238 17.6488 70.6931 16.9645C70.4623 16.2801 70.0668 15.7913 69.5723 15.4654C69.0778 15.1395 68.4515 14.944 67.6604 14.944C66.8693 14.944 66.177 15.1395 65.6166 15.5306C65.0562 15.9216 64.5948 16.4757 64.2981 17.2252C64.0014 17.9747 63.8366 18.8546 63.8366 19.8974C63.8366 20.9728 64.0014 21.8527 64.331 22.5697C64.6607 23.2866 65.1551 23.8406 65.7815 24.1991C66.4078 24.5576 67.1989 24.7531 68.1549 24.7531C69.0778 24.7531 69.902 24.5901 70.5942 24.2969C71.2864 24.0036 71.9128 23.5147 72.5061 22.863L76.3959 26.6432C75.4069 27.7512 74.2532 28.5659 72.8687 29.1199C71.4842 29.6739 69.9349 29.9346 68.1549 29.9346Z" fill="white"/>
<path d="M78.9673 29.4785V0.833313H86.7139V29.4459H78.9673V29.4785Z" fill="white"/>
<path d="M92.1859 8.42647C91.0651 8.42647 90.1091 8.03541 89.3509 7.28588C88.5928 6.50376 88.2302 5.5587 88.2302 4.45069C88.2302 3.34269 88.5928 2.39763 89.3509 1.61551C90.1091 0.833386 91.0321 0.474915 92.1859 0.474915C93.3396 0.474915 94.2955 0.865975 95.0208 1.61551C95.746 2.36504 96.1415 3.34269 96.1415 4.45069C96.1415 5.5587 95.7789 6.50376 95.0208 7.28588C94.2955 8.03541 93.3396 8.42647 92.1859 8.42647ZM88.2961 29.4785V10.2514H96.0426V29.4785H88.2961Z" fill="white"/>
<path d="M97.6577 37.6907V10.2187H105.404V14.944L104.119 19.6041L105.173 24.2969V37.6581H97.6577V37.6907ZM109.624 29.8695C108.47 29.8695 107.382 29.6739 106.327 29.3155C105.305 28.9244 104.415 28.403 103.723 27.7186C103.031 27.0343 102.536 26.2522 102.339 25.3723V14.7159C102.536 13.836 102.998 13.0213 103.723 12.2718C104.448 11.5222 105.305 10.9356 106.327 10.4794C107.349 10.0232 108.437 9.82764 109.624 9.82764C111.535 9.82764 113.217 10.2513 114.667 11.0986C116.117 11.9459 117.238 13.1191 118.029 14.6507C118.821 16.1824 119.249 17.9095 119.249 19.8648C119.249 21.8201 118.853 23.5473 118.029 25.0464C117.205 26.5455 116.117 27.7186 114.667 28.5985C113.25 29.4458 111.568 29.8695 109.624 29.8695ZM108.173 23.1237C108.799 23.1237 109.36 22.9933 109.887 22.7C110.382 22.4067 110.777 22.0157 111.041 21.5269C111.305 21.038 111.47 20.484 111.47 19.8323C111.47 19.1805 111.338 18.6265 111.041 18.1377C110.777 17.6488 110.382 17.2578 109.887 16.9971C109.393 16.7038 108.832 16.5734 108.206 16.5734C107.58 16.5734 107.019 16.7038 106.525 16.9971C106.031 17.2578 105.668 17.6488 105.371 18.1377C105.075 18.6265 104.943 19.2131 104.943 19.8648C104.943 20.484 105.075 21.038 105.338 21.5594C105.602 22.0483 105.965 22.4393 106.459 22.7326C106.986 22.9933 107.547 23.1237 108.173 23.1237Z" fill="white"/>
<path d="M131.742 29.9346C129.467 29.9346 127.489 29.511 125.775 28.6637C124.061 27.8164 122.71 26.6432 121.754 25.1116C120.798 23.5799 120.303 21.8201 120.303 19.8648C120.303 17.9095 120.765 16.1824 121.721 14.6507C122.677 13.1191 123.929 11.9459 125.577 11.066C127.226 10.1861 129.072 9.76245 131.115 9.76245C133.159 9.76245 134.939 10.1861 136.488 11.0008C138.038 11.8155 139.257 12.9561 140.147 14.4226C141.037 15.8891 141.466 17.5511 141.466 19.4412C141.466 19.8323 141.433 20.2559 141.4 20.6795C141.367 21.1032 141.268 21.6246 141.136 22.1786L123.567 22.309V17.5837L138.236 17.4533L134.642 19.539C134.642 18.4961 134.511 17.6488 134.28 16.9645C134.049 16.2801 133.654 15.7913 133.159 15.4654C132.665 15.1395 132.038 14.944 131.247 14.944C130.456 14.944 129.764 15.1395 129.203 15.5306C128.643 15.9216 128.182 16.4757 127.885 17.2252C127.588 17.9747 127.423 18.8546 127.423 19.8974C127.423 20.9728 127.588 21.8527 127.918 22.5697C128.247 23.2866 128.742 23.8406 129.368 24.1991C129.995 24.5576 130.786 24.7531 131.742 24.7531C132.665 24.7531 133.489 24.5901 134.181 24.2969C134.873 24.0036 135.532 23.5147 136.093 22.863L139.983 26.6432C138.994 27.7512 137.84 28.5659 136.455 29.1199C135.104 29.6739 133.522 29.9346 131.742 29.9346Z" fill="white"/>
<path d="M45.4424 17.9748L41.7834 14.3575L32.125 23.8407C31.3668 24.5902 31.3668 25.8286 32.125 26.6107L34.3995 28.8593C35.1577 29.6088 36.4103 29.6088 37.2014 28.8593L45.4424 20.7122C46.2006 19.9627 46.2006 18.7243 45.4424 17.9748Z" fill="#ED1844"/>
<path d="M50.8162 9.11075C50.8162 8.52416 51.0139 8.03534 51.3765 7.67686C51.7391 7.31839 52.2336 7.12286 52.827 7.12286C53.1566 7.12286 53.4533 7.15545 53.75 7.25322C54.0466 7.35098 54.2774 7.48133 54.4752 7.70945L59.2549 2.98414C58.4968 2.20202 57.5408 1.58284 56.3871 1.09402C55.2333 0.605194 53.9148 0.377075 52.4314 0.377075C50.4536 0.377075 48.7724 0.800724 47.3549 1.61543C45.9704 2.43014 44.8826 3.53814 44.1574 4.90685C43.4322 6.27557 43.0367 7.80722 43.0367 9.46922V10.2513H39.081V10.3165L43.2015 14.3575L46.8605 17.9748C47.256 18.3658 47.4538 18.8547 47.4209 19.3761C47.4209 19.8975 47.2231 20.3863 46.8605 20.7774L43.2344 24.3947L43.1026 24.525V29.4785H50.8491V16.4757H56.1893V10.2188H50.8162V9.11075Z" fill="white"/>
<path d="M10.6326 19.9301L14.2916 23.5474L23.9171 14.0316C24.6753 13.2821 24.6753 12.0437 23.9171 11.2616L21.6755 9.01302C20.9174 8.26348 19.6647 8.26348 18.8736 9.01302L10.6326 17.1601C9.87444 17.9422 9.87444 19.148 10.6326 19.9301Z" fill="#ED1844"/>
<path d="M12.1161 8.42628C13.2698 8.42628 14.2258 8.03522 14.951 7.28569C15.6762 6.50357 16.0717 5.55851 16.0717 4.45051C16.0717 3.3425 15.7091 2.39744 14.951 1.61532C14.2258 0.833199 13.2698 0.442139 12.1161 0.442139C10.9953 0.442139 10.0393 0.833199 9.28116 1.58273C8.52298 2.36485 8.16038 3.30991 8.16038 4.45051C8.16038 5.55851 8.52298 6.50357 9.28116 7.28569C10.0393 8.03522 10.9623 8.42628 12.1161 8.42628Z" fill="white"/>
<path d="M12.9731 23.5473L9.2811 19.93C8.88553 19.539 8.68775 19.0501 8.68775 18.5287C8.68775 18.0073 8.88553 17.5185 9.24814 17.1274L11.5227 14.8788C11.5556 14.8462 11.5886 14.8462 11.6215 14.8136L15.9728 10.512V10.2187H8.22625V29.9672C8.22625 30.5538 8.0944 30.9449 7.86365 31.2056C7.59994 31.4663 7.23733 31.5966 6.8088 31.5966C6.61102 31.5966 6.38027 31.5641 6.14952 31.4663C5.91877 31.3685 5.68803 31.173 5.42431 30.9123L0.710464 35.5724C1.46864 36.4197 2.39163 37.0715 3.5124 37.5603C4.63318 38.0491 5.85285 38.3098 7.30326 38.3098C9.08332 38.3098 10.5997 37.9514 11.8853 37.2018C13.1709 36.4849 14.1927 35.4747 14.885 34.2037C15.6102 32.9328 15.9398 31.4663 15.9398 29.8369V26.5129L12.9731 23.5473Z" fill="white"/>
</g>
<defs>
<linearGradient id="paint0_linear_141_3727" x1="32.3584" y1="11.8757" x2="45.6189" y2="21.841" gradientUnits="userSpaceOnUse">
<stop offset="0.0906" stop-color="#ED1844"/>
<stop offset="0.5971" stop-color="#840033"/>
</linearGradient>
<linearGradient id="paint1_linear_141_3727" x1="22.2633" y1="26.941" x2="9.66593" y2="12.7251" gradientUnits="userSpaceOnUse">
<stop stop-color="#ED1844"/>
<stop offset="0.5971" stop-color="#840033"/>
</linearGradient>
<clipPath id="clip0_141_3727">
<rect width="140.789" height="37.9328" fill="white" transform="translate(0.710819 0.376831)"/>
</clipPath>
</defs>
</svg>
