<svg width="415" height="125" viewBox="0 0 415 125" fill="none" xmlns="http://www.w3.org/2000/svg">
<rect x="4.31779" y="4.31653" width="406.368" height="86.7702" rx="4.27012" stroke="#B93C9B"/>
<rect x="406.89" y="87.2938" width="7.63219" height="7.63219" fill="#D9D9D9" stroke="#B93C9B" stroke-width="0.954024"/>
<g filter="url(#filter0_d_141_1852)">
<path d="M385.945 103.989L380.396 84.5206L398.782 93.3165L390.369 96.2974L385.945 103.989Z" fill="#B83C9A"/>
<path d="M385.484 104.117L385.795 105.209L386.362 104.225L390.698 96.6855L398.944 93.7637L400.021 93.3822L398.99 92.8889L380.603 84.093L379.645 83.6347L379.935 84.649L385.484 104.117Z" stroke="#F5FAFF" stroke-width="0.954024"/>
</g>
<rect x="406.89" y="1.43111" width="7.63219" height="7.63219" fill="#D9D9D9" stroke="#B93C9B" stroke-width="0.954024"/>
<rect x="0.477012" y="0.477012" width="7.63219" height="7.63219" fill="#D9D9D9" stroke="#B93C9B" stroke-width="0.954024"/>
<rect x="0.477012" y="87.2938" width="7.63219" height="7.63219" fill="#D9D9D9" stroke="#B93C9B" stroke-width="0.954024"/>
<rect x="183.799" y="104.617" width="47.4501" height="19.0303" rx="2.51059" fill="#B83C9A"/>
<path d="M193.626 115.43V114.762L195.993 111.022H196.52V112.007H196.186L194.493 114.687V114.73H197.737V115.43H193.626ZM196.223 116.5V115.227L196.229 114.922V111.022H197.012V116.5H196.223ZM200.674 111.022V116.5H199.845V111.852H199.813L198.502 112.707V111.916L199.869 111.022H200.674ZM203.964 116.575C203.628 116.575 203.327 116.511 203.06 116.382C202.794 116.252 202.582 116.074 202.423 115.848C202.264 115.621 202.18 115.363 202.169 115.072H202.971C202.991 115.307 203.095 115.501 203.284 115.652C203.473 115.804 203.7 115.88 203.964 115.88C204.174 115.88 204.36 115.831 204.523 115.735C204.687 115.637 204.815 115.502 204.908 115.331C205.002 115.16 205.049 114.965 205.049 114.746C205.049 114.523 205.001 114.324 204.905 114.149C204.809 113.974 204.676 113.837 204.507 113.737C204.339 113.637 204.146 113.587 203.929 113.585C203.763 113.585 203.596 113.613 203.429 113.67C203.261 113.727 203.126 113.802 203.022 113.895L202.265 113.783L202.573 111.022H205.584V111.731H203.26L203.086 113.264H203.118C203.225 113.16 203.367 113.074 203.544 113.004C203.722 112.935 203.913 112.9 204.116 112.9C204.449 112.9 204.746 112.979 205.007 113.138C205.269 113.297 205.475 113.513 205.624 113.788C205.776 114.061 205.851 114.375 205.849 114.73C205.851 115.084 205.771 115.401 205.608 115.679C205.448 115.957 205.225 116.176 204.94 116.337C204.656 116.496 204.331 116.575 203.964 116.575ZM210.092 115.591L207.016 112.515L207.521 112.009L210.597 115.085L210.092 115.591ZM207.521 115.591L207.016 115.085L210.092 112.009L210.597 112.515L207.521 115.591ZM213.921 111.022V116.5H213.091V111.852H213.059L211.749 112.707V111.916L213.115 111.022H213.921ZM215.402 116.5V115.901L217.256 113.981C217.454 113.772 217.617 113.589 217.745 113.432C217.875 113.274 217.973 113.123 218.037 112.98C218.101 112.838 218.133 112.686 218.133 112.526C218.133 112.344 218.09 112.187 218.005 112.055C217.919 111.921 217.802 111.819 217.654 111.747C217.506 111.674 217.34 111.638 217.154 111.638C216.958 111.638 216.787 111.678 216.641 111.758C216.494 111.838 216.382 111.951 216.304 112.098C216.225 112.244 216.186 112.415 216.186 112.611H215.397C215.397 112.278 215.474 111.986 215.627 111.737C215.78 111.487 215.991 111.294 216.258 111.156C216.526 111.017 216.83 110.948 217.17 110.948C217.514 110.948 217.817 111.016 218.08 111.154C218.343 111.289 218.549 111.474 218.697 111.71C218.845 111.943 218.919 112.207 218.919 112.502C218.919 112.705 218.881 112.904 218.804 113.098C218.73 113.292 218.598 113.509 218.411 113.748C218.224 113.985 217.964 114.273 217.63 114.612L216.542 115.751V115.791H219.008V116.5H215.402ZM221.829 116.575C221.494 116.575 221.193 116.511 220.925 116.382C220.66 116.252 220.448 116.074 220.289 115.848C220.13 115.621 220.045 115.363 220.035 115.072H220.837C220.857 115.307 220.961 115.501 221.15 115.652C221.339 115.804 221.566 115.88 221.829 115.88C222.04 115.88 222.226 115.831 222.388 115.735C222.552 115.637 222.681 115.502 222.774 115.331C222.868 115.16 222.915 114.965 222.915 114.746C222.915 114.523 222.867 114.324 222.771 114.149C222.675 113.974 222.542 113.837 222.372 113.737C222.205 113.637 222.012 113.587 221.795 113.585C221.629 113.585 221.462 113.613 221.295 113.67C221.127 113.727 220.991 113.802 220.888 113.895L220.131 113.783L220.439 111.022H223.45V111.731H221.126L220.952 113.264H220.984C221.091 113.16 221.233 113.074 221.41 113.004C221.588 112.935 221.779 112.9 221.982 112.9C222.315 112.9 222.612 112.979 222.873 113.138C223.135 113.297 223.341 113.513 223.49 113.788C223.642 114.061 223.717 114.375 223.715 114.73C223.717 115.084 223.637 115.401 223.474 115.679C223.314 115.957 223.091 116.176 222.806 116.337C222.522 116.496 222.197 116.575 221.829 116.575Z" fill="white"/>
<rect x="183.799" y="104.617" width="47.4501" height="19.0303" rx="2.51059" stroke="#B83C9A" stroke-width="1.25529"/>
<path d="M62.0935 26.6913L58.3564 15.849H61.6931L64.0065 23.7241L63.0277 23.7464L65.5859 15.849H68.3442L70.9246 23.7464L69.9236 23.7241L72.2592 15.849H75.5959L71.8588 26.6913H69.0783L66.5646 19.1954H67.4099L64.8518 26.6913H62.0935Z" fill="white"/>
<path d="M81.8998 26.9367C80.7876 26.9367 79.7792 26.6913 78.8746 26.2005C77.9848 25.6948 77.2804 25.0106 76.7613 24.148C76.2423 23.2854 75.9828 22.3187 75.9828 21.2478C75.9828 20.177 76.2423 19.2177 76.7613 18.3699C77.2804 17.5222 77.9848 16.8529 78.8746 16.3621C79.7643 15.8564 80.7728 15.6036 81.8998 15.6036C83.0269 15.6036 84.0353 15.849 84.9251 16.3398C85.8149 16.8306 86.5193 17.5073 87.0383 18.3699C87.5573 19.2177 87.8169 20.177 87.8169 21.2478C87.8169 22.3187 87.5573 23.2854 87.0383 24.148C86.5193 25.0106 85.8149 25.6948 84.9251 26.2005C84.0353 26.6913 83.0269 26.9367 81.8998 26.9367ZM81.8998 23.8357C82.3892 23.8357 82.8193 23.7316 83.19 23.5234C83.5607 23.3003 83.8425 22.9954 84.0353 22.6087C84.2429 22.2071 84.3467 21.7535 84.3467 21.2478C84.3467 20.7421 84.2429 20.3034 84.0353 19.9316C83.8277 19.5449 83.5385 19.2474 83.1678 19.0392C82.8118 18.8161 82.3892 18.7046 81.8998 18.7046C81.4253 18.7046 81.0026 18.8161 80.6319 19.0392C80.2611 19.2474 79.972 19.5449 79.7643 19.9316C79.5567 20.3183 79.4529 20.7644 79.4529 21.2701C79.4529 21.7609 79.5567 22.2071 79.7643 22.6087C79.972 22.9954 80.2611 23.3003 80.6319 23.5234C81.0026 23.7316 81.4253 23.8357 81.8998 23.8357Z" fill="white"/>
<path d="M89.5113 26.6913V15.849H92.9147V26.6913H89.5113ZM92.9147 20.7347L91.491 19.6192C91.7728 18.355 92.2474 17.3734 92.9147 16.6744C93.582 15.9754 94.5089 15.6259 95.6953 15.6259C96.2143 15.6259 96.6666 15.7077 97.0522 15.8713C97.4526 16.02 97.8011 16.258 98.0977 16.5852L96.0734 19.1507C95.9251 18.9871 95.7397 18.8607 95.5173 18.7715C95.2949 18.6822 95.0428 18.6376 94.761 18.6376C94.1975 18.6376 93.7452 18.8161 93.4041 19.173C93.0778 19.5151 92.9147 20.0357 92.9147 20.7347Z" fill="white"/>
<path d="M105.922 26.6913L102.141 21.0693L105.9 15.849H109.704L105.166 21.7163L105.277 20.3108L109.926 26.6913H105.922ZM99.0043 26.6913V10.4948H102.408V26.6913H99.0043Z" fill="white"/>
<path d="M114.455 26.959C113.817 26.959 113.187 26.8772 112.564 26.7136C111.956 26.55 111.385 26.3194 110.851 26.022C110.332 25.7097 109.887 25.3527 109.517 24.9511L111.452 22.9879C111.808 23.3746 112.23 23.6795 112.72 23.9026C113.209 24.1108 113.743 24.2149 114.321 24.2149C114.722 24.2149 115.026 24.1554 115.233 24.0365C115.456 23.9175 115.567 23.7539 115.567 23.5457C115.567 23.278 115.434 23.0772 115.167 22.9433C114.915 22.7946 114.588 22.6682 114.188 22.5641C113.788 22.4451 113.365 22.3187 112.92 22.1848C112.475 22.0509 112.052 21.865 111.652 21.6271C111.252 21.3891 110.925 21.0619 110.673 20.6455C110.421 20.2141 110.295 19.6713 110.295 19.0169C110.295 18.3179 110.473 17.7155 110.829 17.2098C111.185 16.6893 111.689 16.2803 112.342 15.9828C112.994 15.6854 113.758 15.5366 114.633 15.5366C115.552 15.5366 116.398 15.7002 117.169 16.0274C117.955 16.3398 118.592 16.8083 119.082 17.4329L117.146 19.3961C116.805 18.9946 116.42 18.712 115.99 18.5484C115.575 18.3848 115.167 18.303 114.766 18.303C114.381 18.303 114.092 18.3625 113.899 18.4815C113.706 18.5856 113.61 18.7417 113.61 18.95C113.61 19.173 113.736 19.3515 113.988 19.4854C114.24 19.6192 114.566 19.7382 114.967 19.8423C115.367 19.9464 115.79 20.0729 116.234 20.2216C116.679 20.3703 117.102 20.5711 117.502 20.8239C117.903 21.0768 118.229 21.4188 118.481 21.8502C118.733 22.2666 118.859 22.8169 118.859 23.501C118.859 24.557 118.459 25.3973 117.658 26.022C116.872 26.6466 115.804 26.959 114.455 26.959Z" fill="white"/>
<path d="M127.846 26.6913V20.5116C127.846 19.9464 127.668 19.4928 127.312 19.1507C126.971 18.7938 126.534 18.6153 126 18.6153C125.629 18.6153 125.303 18.6971 125.021 18.8607C124.739 19.0094 124.517 19.2325 124.354 19.53C124.191 19.8126 124.109 20.1398 124.109 20.5116L122.797 19.8646C122.797 19.0169 122.975 18.2732 123.331 17.6337C123.687 16.9942 124.183 16.5034 124.821 16.1613C125.459 15.8044 126.193 15.6259 127.023 15.6259C127.869 15.6259 128.61 15.8044 129.248 16.1613C129.885 16.5034 130.375 16.9867 130.716 17.6114C131.072 18.2212 131.25 18.9351 131.25 19.7531V26.6913H127.846ZM120.706 26.6913V10.4948H124.109V26.6913H120.706Z" fill="white"/>
<path d="M138.641 26.9367C137.529 26.9367 136.52 26.6913 135.616 26.2005C134.726 25.6948 134.021 25.0106 133.502 24.148C132.983 23.2854 132.724 22.3187 132.724 21.2478C132.724 20.177 132.983 19.2177 133.502 18.3699C134.021 17.5222 134.726 16.8529 135.616 16.3621C136.505 15.8564 137.514 15.6036 138.641 15.6036C139.768 15.6036 140.776 15.849 141.666 16.3398C142.556 16.8306 143.26 17.5073 143.779 18.3699C144.298 19.2177 144.558 20.177 144.558 21.2478C144.558 22.3187 144.298 23.2854 143.779 24.148C143.26 25.0106 142.556 25.6948 141.666 26.2005C140.776 26.6913 139.768 26.9367 138.641 26.9367ZM138.641 23.8357C139.13 23.8357 139.56 23.7316 139.931 23.5234C140.302 23.3003 140.583 22.9954 140.776 22.6087C140.984 22.2071 141.088 21.7535 141.088 21.2478C141.088 20.7421 140.984 20.3034 140.776 19.9316C140.569 19.5449 140.279 19.2474 139.909 19.0392C139.553 18.8161 139.13 18.7046 138.641 18.7046C138.166 18.7046 137.744 18.8161 137.373 19.0392C137.002 19.2474 136.713 19.5449 136.505 19.9316C136.298 20.3183 136.194 20.7644 136.194 21.2701C136.194 21.7609 136.298 22.2071 136.505 22.6087C136.713 22.9954 137.002 23.3003 137.373 23.5234C137.744 23.7316 138.166 23.8357 138.641 23.8357Z" fill="white"/>
<path d="M152.481 26.9144C151.754 26.9144 151.087 26.7731 150.479 26.4905C149.871 26.2079 149.374 25.8212 148.988 25.3304C148.603 24.8247 148.38 24.2521 148.321 23.6126V19.0392C148.38 18.3997 148.603 17.8196 148.988 17.2991C149.374 16.7785 149.871 16.3695 150.479 16.0721C151.087 15.7746 151.754 15.6259 152.481 15.6259C153.504 15.6259 154.409 15.8713 155.195 16.3621C155.995 16.8529 156.618 17.5222 157.063 18.3699C157.523 19.2177 157.753 20.1844 157.753 21.2701C157.753 22.3558 157.523 23.3226 157.063 24.1703C156.618 25.0181 155.995 25.6874 155.195 26.1782C154.409 26.669 153.504 26.9144 152.481 26.9144ZM151.858 23.8357C152.347 23.8357 152.77 23.7241 153.126 23.501C153.497 23.278 153.786 22.9731 153.993 22.5864C154.201 22.1997 154.305 21.7609 154.305 21.2701C154.305 20.7644 154.201 20.3183 153.993 19.9316C153.786 19.5449 153.497 19.2474 153.126 19.0392C152.77 18.8161 152.355 18.7046 151.88 18.7046C151.406 18.7046 150.983 18.8161 150.612 19.0392C150.256 19.2474 149.975 19.5449 149.767 19.9316C149.559 20.3183 149.455 20.7644 149.455 21.2701C149.455 21.7609 149.552 22.1997 149.745 22.5864C149.952 22.9731 150.241 23.278 150.612 23.501C150.983 23.7241 151.398 23.8357 151.858 23.8357ZM146.252 31.2647V15.849H149.656V18.6376L149.1 21.2701L149.611 23.9026V31.2647H146.252Z" fill="white"/>
<path d="M168.322 26.9144C167.299 26.9144 166.387 26.669 165.586 26.1782C164.8 25.6874 164.177 25.0181 163.718 24.1703C163.273 23.3226 163.05 22.3558 163.05 21.2701C163.05 20.1844 163.273 19.2177 163.718 18.3699C164.177 17.5222 164.8 16.8529 165.586 16.3621C166.387 15.8713 167.299 15.6259 168.322 15.6259C169.064 15.6259 169.731 15.7672 170.324 16.0498C170.932 16.3323 171.429 16.7265 171.815 17.2321C172.215 17.7229 172.438 18.2881 172.482 18.9276V23.501C172.438 24.1406 172.223 24.7206 171.837 25.2412C171.451 25.7468 170.955 26.1558 170.347 26.4682C169.739 26.7656 169.064 26.9144 168.322 26.9144ZM168.923 23.8357C169.412 23.8357 169.835 23.7316 170.191 23.5234C170.547 23.3003 170.829 22.9954 171.036 22.6087C171.244 22.222 171.348 21.7758 171.348 21.2701C171.348 20.7644 171.244 20.3257 171.036 19.9539C170.843 19.5672 170.562 19.2623 170.191 19.0392C169.835 18.8161 169.42 18.7046 168.945 18.7046C168.471 18.7046 168.048 18.8161 167.677 19.0392C167.321 19.2623 167.032 19.5672 166.81 19.9539C166.602 20.3406 166.498 20.7793 166.498 21.2701C166.498 21.7609 166.602 22.1997 166.81 22.5864C167.017 22.9731 167.306 23.278 167.677 23.501C168.048 23.7241 168.463 23.8357 168.923 23.8357ZM174.551 26.6913H171.214V23.7688L171.726 21.1363L171.147 18.5038V10.4948H174.551V26.6913Z" fill="white"/>
<path d="M182.286 26.9367C181.114 26.9367 180.069 26.6987 179.149 26.2228C178.245 25.732 177.533 25.0553 177.014 24.1926C176.495 23.33 176.235 22.3558 176.235 21.2701C176.235 20.1844 176.487 19.2177 176.992 18.3699C177.511 17.5073 178.208 16.8306 179.083 16.3398C179.958 15.849 180.944 15.6036 182.041 15.6036C183.109 15.6036 184.051 15.8341 184.866 16.2952C185.682 16.7562 186.32 17.3957 186.779 18.2138C187.254 19.0318 187.491 19.9687 187.491 21.0247C187.491 21.2181 187.476 21.4263 187.447 21.6494C187.432 21.8576 187.395 22.103 187.335 22.3856L178.015 22.4079V20.0654L185.889 20.0431L184.421 21.0247C184.406 20.4001 184.31 19.8869 184.132 19.4854C183.954 19.0689 183.687 18.7566 183.331 18.5484C182.99 18.3253 182.568 18.2138 182.063 18.2138C181.53 18.2138 181.062 18.3402 180.662 18.593C180.276 18.831 179.972 19.173 179.75 19.6192C179.542 20.0654 179.439 20.6083 179.439 21.2478C179.439 21.8873 179.55 22.4376 179.772 22.8987C180.009 23.3449 180.336 23.6944 180.751 23.9472C181.181 24.1852 181.685 24.3042 182.264 24.3042C182.797 24.3042 183.279 24.2149 183.709 24.0365C184.14 23.8431 184.518 23.5605 184.844 23.1887L186.713 25.0627C186.179 25.6874 185.534 26.1558 184.777 26.4682C184.021 26.7805 183.19 26.9367 182.286 26.9367Z" fill="white"/>
<path d="M22.5737 77.9968V32.5178C22.5737 29.1298 23.3202 26.0864 24.8132 23.3875C26.3636 20.6312 28.517 18.4778 31.2733 16.9274C34.0296 15.3195 37.3027 14.5156 41.0927 14.5156C43.9638 14.5156 46.4617 15.0037 48.5864 15.9799C50.7684 16.8987 52.6634 18.1907 54.2713 19.856L46.0023 28.1249C45.4281 27.5507 44.7677 27.12 44.0212 26.8329C43.3322 26.4883 42.4995 26.3161 41.5233 26.3161C39.7432 26.3161 38.3364 26.8329 37.3027 27.8665C36.2691 28.9001 35.7523 30.307 35.7523 32.0871V77.9968H22.5737ZM13.3573 47.3329V36.1354H47.8112V47.3329H13.3573Z" fill="url(#paint0_linear_141_1852)"/>
<path d="M53.2349 77.9968V36.1354H66.4135V77.9968H53.2349ZM66.4135 54.9989L60.9009 50.6921C61.992 45.8112 63.8295 42.0213 66.4135 39.3224C68.9976 36.6235 72.5865 35.2741 77.1803 35.2741C79.1902 35.2741 80.9416 35.5899 82.4346 36.2215C83.985 36.7958 85.3344 37.7145 86.4829 38.9778L78.6446 48.8833C78.0704 48.2517 77.3526 47.7636 76.4913 47.419C75.6299 47.0745 74.6537 46.9022 73.5627 46.9022C71.3806 46.9022 69.6292 47.5913 68.3085 48.9695C67.0452 50.2902 66.4135 52.3 66.4135 54.9989Z" fill="url(#paint1_linear_141_1852)"/>
<path d="M108.971 78.9443C104.665 78.9443 100.76 77.9968 97.2571 76.1018C93.8117 74.1495 91.0841 71.508 89.0743 68.1775C87.0645 64.8469 86.0596 61.1144 86.0596 56.98C86.0596 52.8455 87.0645 49.1417 89.0743 45.8686C91.0841 42.5955 93.8117 40.0115 97.2571 38.1165C100.702 36.1641 104.607 35.1879 108.971 35.1879C113.336 35.1879 117.24 36.1354 120.686 38.0304C124.131 39.9253 126.859 42.5381 128.868 45.8686C130.878 49.1417 131.883 52.8455 131.883 56.98C131.883 61.1144 130.878 64.8469 128.868 68.1775C126.859 71.508 124.131 74.1495 120.686 76.1018C117.24 77.9968 113.336 78.9443 108.971 78.9443ZM108.971 66.9716C110.866 66.9716 112.532 66.5696 113.967 65.7657C115.403 64.9044 116.494 63.7272 117.24 62.2342C118.044 60.6838 118.446 58.9324 118.446 56.98C118.446 55.0276 118.044 53.3336 117.24 51.898C116.436 50.405 115.317 49.2566 113.881 48.4526C112.503 47.5913 110.866 47.1606 108.971 47.1606C107.134 47.1606 105.497 47.5913 104.062 48.4526C102.626 49.2566 101.506 50.405 100.702 51.898C99.8986 53.391 99.4966 55.1137 99.4966 57.0661C99.4966 58.9611 99.8986 60.6838 100.702 62.2342C101.506 63.7272 102.626 64.9044 104.062 65.7657C105.497 66.5696 107.134 66.9716 108.971 66.9716Z" fill="url(#paint2_linear_141_1852)"/>
<path d="M166.093 77.9968V54.1375C166.093 51.9555 165.404 50.204 164.026 48.8833C162.705 47.5052 161.011 46.8161 158.944 46.8161C157.509 46.8161 156.245 47.1319 155.154 47.7636C154.063 48.3378 153.202 49.1991 152.57 50.3476C151.939 51.4386 151.623 52.702 151.623 54.1375L146.541 51.6396C146.541 48.3665 147.259 45.4954 148.694 43.0262C150.13 40.557 152.111 38.662 154.638 37.3413C157.222 35.9631 160.121 35.2741 163.337 35.2741C166.438 35.2741 169.166 36.0206 171.52 37.5136C173.932 38.9491 175.827 40.8728 177.205 43.2846C178.583 45.6963 179.272 48.3378 179.272 51.209V77.9968H166.093ZM138.444 77.9968V36.1354H151.623V77.9968H138.444Z" fill="url(#paint3_linear_141_1852)"/>
<path d="M193.175 77.9968V18.8224H206.353V77.9968H193.175ZM183.7 47.3329V36.1354H215.828V47.3329H183.7Z" fill="url(#paint4_linear_141_1852)"/>
<path d="M220.625 61.8035V50.2615H251.117V61.8035H220.625Z" fill="url(#paint5_linear_141_1852)"/>
<path d="M282.935 78.9443C278.399 78.9443 274.35 78.0255 270.79 76.188C267.287 74.293 264.531 71.6803 262.521 68.3497C260.511 65.0192 259.506 61.258 259.506 57.0661C259.506 52.8742 260.483 49.1417 262.435 45.8686C264.445 42.5381 267.144 39.9253 270.532 38.0304C273.92 36.1354 277.738 35.1879 281.987 35.1879C286.122 35.1879 289.768 36.078 292.927 37.8581C296.085 39.6382 298.554 42.1074 300.334 45.2657C302.172 48.4239 303.09 52.0416 303.09 56.1186C303.09 56.8651 303.033 57.669 302.918 58.5304C302.861 59.3343 302.717 60.2818 302.487 61.3728L266.397 61.459V52.4148L296.889 52.3287L291.204 56.1186C291.146 53.7069 290.773 51.7258 290.084 50.1753C289.395 48.5675 288.361 47.3616 286.983 46.5577C285.663 45.6963 284.026 45.2657 282.074 45.2657C280.006 45.2657 278.198 45.7538 276.647 46.73C275.154 47.6487 273.977 48.9695 273.116 50.6921C272.312 52.4148 271.91 54.5108 271.91 56.98C271.91 59.4492 272.34 61.5738 273.202 63.3539C274.121 65.0766 275.384 66.4261 276.992 67.4023C278.657 68.321 280.609 68.7804 282.849 68.7804C284.916 68.7804 286.782 68.4359 288.448 67.7468C290.113 67.0003 291.577 65.9093 292.84 64.4737L300.076 71.709C298.009 74.1208 295.511 75.9296 292.582 77.1355C289.653 78.3413 286.438 78.9443 282.935 78.9443Z" fill="url(#paint6_linear_141_1852)"/>
<path d="M337.101 77.9968V54.1375C337.101 51.9555 336.412 50.204 335.034 48.8833C333.713 47.5052 332.019 46.8161 329.952 46.8161C328.516 46.8161 327.253 47.1319 326.162 47.7636C325.071 48.3378 324.209 49.1991 323.578 50.3476C322.946 51.4386 322.63 52.702 322.63 54.1375L317.548 51.6396C317.548 48.3665 318.266 45.4954 319.702 43.0262C321.137 40.557 323.118 38.662 325.645 37.3413C328.229 35.9631 331.129 35.2741 334.345 35.2741C337.445 35.2741 340.173 36.0206 342.527 37.5136C344.939 38.9491 346.834 40.8728 348.212 43.2846C349.59 45.6963 350.279 48.3378 350.279 51.209V77.9968H337.101ZM309.452 77.9968V36.1354H322.63V77.9968H309.452Z" fill="url(#paint7_linear_141_1852)"/>
<path d="M376.573 78.8581C372.611 78.8581 369.08 77.9107 365.979 76.0157C362.935 74.1208 360.524 71.5367 358.743 68.2636C357.021 64.9905 356.159 61.258 356.159 57.0661C356.159 52.8742 357.021 49.1417 358.743 45.8686C360.524 42.5955 362.935 40.0115 365.979 38.1165C369.08 36.2215 372.611 35.2741 376.573 35.2741C379.444 35.2741 382.029 35.8196 384.325 36.9106C386.68 38.0017 388.603 39.5234 390.096 41.4757C391.647 43.3707 392.508 45.5528 392.68 48.022V65.6796C392.508 68.1488 391.676 70.3883 390.183 72.3981C388.69 74.3504 386.766 75.9296 384.412 77.1355C382.057 78.2839 379.444 78.8581 376.573 78.8581ZM378.899 66.9716C380.794 66.9716 382.43 66.5696 383.809 65.7657C385.187 64.9044 386.278 63.7272 387.082 62.2342C387.886 60.7412 388.288 59.0185 388.288 57.0661C388.288 55.1137 387.886 53.4197 387.082 51.9842C386.335 50.4912 385.244 49.314 383.809 48.4526C382.43 47.5913 380.823 47.1606 378.985 47.1606C377.148 47.1606 375.511 47.5913 374.075 48.4526C372.697 49.314 371.577 50.4912 370.716 51.9842C369.912 53.4772 369.51 55.1711 369.51 57.0661C369.51 58.9611 369.912 60.655 370.716 62.148C371.52 63.641 372.64 64.8182 374.075 65.6796C375.511 66.5409 377.119 66.9716 378.899 66.9716ZM400.691 77.9968H387.771V66.7132L389.752 56.5493L387.512 46.3854V15.4631H400.691V77.9968Z" fill="url(#paint8_linear_141_1852)"/>
<defs>
<filter id="filter0_d_141_1852" x="376.987" y="81.7948" width="26.1804" height="27.4966" filterUnits="userSpaceOnUse" color-interpolation-filters="sRGB">
<feFlood flood-opacity="0" result="BackgroundImageFix"/>
<feColorMatrix in="SourceAlpha" type="matrix" values="0 0 0 0 0 0 0 0 0 0 0 0 0 0 0 0 0 0 127 0" result="hardAlpha"/>
<feOffset dy="0.954024"/>
<feGaussianBlur stdDeviation="0.954024"/>
<feComposite in2="hardAlpha" operator="out"/>
<feColorMatrix type="matrix" values="0 0 0 0 0 0 0 0 0 0 0 0 0 0 0 0 0 0 0.08 0"/>
<feBlend mode="normal" in2="BackgroundImageFix" result="effect1_dropShadow_141_1852"/>
<feBlend mode="normal" in="SourceGraphic" in2="effect1_dropShadow_141_1852" result="shape"/>
</filter>
<linearGradient id="paint0_linear_141_1852" x1="-15.9105" y1="47.0744" x2="405.48" y2="47.0744" gradientUnits="userSpaceOnUse">
<stop offset="0.050063" stop-color="#ED1945"/>
<stop offset="0.489583" stop-color="#BB3997"/>
<stop offset="1" stop-color="#7F63FE"/>
</linearGradient>
<linearGradient id="paint1_linear_141_1852" x1="-15.9105" y1="47.0744" x2="405.48" y2="47.0744" gradientUnits="userSpaceOnUse">
<stop offset="0.050063" stop-color="#ED1945"/>
<stop offset="0.489583" stop-color="#BB3997"/>
<stop offset="1" stop-color="#7F63FE"/>
</linearGradient>
<linearGradient id="paint2_linear_141_1852" x1="-15.9105" y1="47.0744" x2="405.48" y2="47.0744" gradientUnits="userSpaceOnUse">
<stop offset="0.050063" stop-color="#ED1945"/>
<stop offset="0.489583" stop-color="#BB3997"/>
<stop offset="1" stop-color="#7F63FE"/>
</linearGradient>
<linearGradient id="paint3_linear_141_1852" x1="-15.9105" y1="47.0744" x2="405.48" y2="47.0744" gradientUnits="userSpaceOnUse">
<stop offset="0.050063" stop-color="#ED1945"/>
<stop offset="0.489583" stop-color="#BB3997"/>
<stop offset="1" stop-color="#7F63FE"/>
</linearGradient>
<linearGradient id="paint4_linear_141_1852" x1="-15.9105" y1="47.0744" x2="405.48" y2="47.0744" gradientUnits="userSpaceOnUse">
<stop offset="0.050063" stop-color="#ED1945"/>
<stop offset="0.489583" stop-color="#BB3997"/>
<stop offset="1" stop-color="#7F63FE"/>
</linearGradient>
<linearGradient id="paint5_linear_141_1852" x1="-15.9105" y1="47.0744" x2="405.48" y2="47.0744" gradientUnits="userSpaceOnUse">
<stop offset="0.050063" stop-color="#ED1945"/>
<stop offset="0.489583" stop-color="#BB3997"/>
<stop offset="1" stop-color="#7F63FE"/>
</linearGradient>
<linearGradient id="paint6_linear_141_1852" x1="-15.9105" y1="47.0744" x2="405.48" y2="47.0744" gradientUnits="userSpaceOnUse">
<stop offset="0.050063" stop-color="#ED1945"/>
<stop offset="0.489583" stop-color="#BB3997"/>
<stop offset="1" stop-color="#7F63FE"/>
</linearGradient>
<linearGradient id="paint7_linear_141_1852" x1="-15.9105" y1="47.0744" x2="405.48" y2="47.0744" gradientUnits="userSpaceOnUse">
<stop offset="0.050063" stop-color="#ED1945"/>
<stop offset="0.489583" stop-color="#BB3997"/>
<stop offset="1" stop-color="#7F63FE"/>
</linearGradient>
<linearGradient id="paint8_linear_141_1852" x1="-15.9105" y1="47.0744" x2="405.48" y2="47.0744" gradientUnits="userSpaceOnUse">
<stop offset="0.050063" stop-color="#ED1945"/>
<stop offset="0.489583" stop-color="#BB3997"/>
<stop offset="1" stop-color="#7F63FE"/>
</linearGradient>
</defs>
</svg>
