<svg width="1012" height="240" viewBox="0 0 1012 240" fill="none" xmlns="http://www.w3.org/2000/svg">
<g clip-path="url(#clip0)">
<rect width="1012" height="240" fill="white"/>
<rect x="-552" y="-1" width="1564" height="321" fill="#2C2C2C"/>
<rect width="92" height="80" fill="#414141"/>
<rect x="92" y="80" width="92" height="80" fill="#414141"/>
<rect x="184" width="92" height="80" fill="#414141"/>
<rect x="184" y="160" width="92" height="80" fill="#414141"/>
<rect x="276" y="80" width="92" height="80" fill="#414141"/>
<rect x="368" width="92" height="80" fill="#414141"/>
<rect x="368" y="160" width="92" height="80" fill="#414141"/>
<rect x="460" y="80" width="92" height="80" fill="#414141"/>
<rect y="160" width="92" height="80" fill="#414141"/>
<rect x="552" width="92" height="80" fill="#414141"/>
<rect x="644" y="80" width="92" height="80" fill="#414141"/>
<rect x="736" width="92" height="80" fill="#414141"/>
<rect x="736" y="160" width="92" height="80" fill="#414141"/>
<rect x="828" y="80" width="92" height="80" fill="#414141"/>
<rect x="920" width="92" height="80" fill="#414141"/>
<rect x="920" y="160" width="92" height="80" fill="#414141"/>
<rect x="552" y="160" width="92" height="80" fill="#414141"/>
</g>
<defs>
<clipPath id="clip0">
<rect width="1012" height="240" fill="white"/>
</clipPath>
</defs>
</svg>
