<svg width="48" height="48" viewBox="0 0 48 48" fill="none" xmlns="http://www.w3.org/2000/svg">
<rect width="48" height="48" rx="2" fill="#333333"/>
<path d="M16.7 32.3C16.7 31.2656 17.1109 30.2737 17.8423 29.5423C18.5737 28.8109 19.5657 28.4 20.6 28.4H24.5V32.3C24.5 33.3343 24.0891 34.3263 23.3577 35.0577C22.6263 35.7891 21.6344 36.2 20.6 36.2C19.5657 36.2 18.5737 35.7891 17.8423 35.0577C17.1109 34.3263 16.7 33.3343 16.7 32.3ZM20.6 28.4H24.5V20.6H20.6C19.5657 20.6 18.5737 21.0109 17.8423 21.7423C17.1109 22.4737 16.7 23.4656 16.7 24.5C16.7 25.5343 17.1109 26.5263 17.8423 27.2577C18.5737 27.9891 19.5657 28.4 20.6 28.4ZM20.6 20.6H24.5V12.8H20.6C19.5657 12.8 18.5737 13.2109 17.8423 13.9423C17.1109 14.6737 16.7 15.6656 16.7 16.7C16.7 17.7343 17.1109 18.7263 17.8423 19.4577C18.5737 20.1891 19.5657 20.6 20.6 20.6ZM24.5 20.6H28.4C29.4344 20.6 30.4263 20.1891 31.1577 19.4577C31.8891 18.7263 32.3 17.7343 32.3 16.7C32.3 15.6656 31.8891 14.6737 31.1577 13.9423C30.4263 13.2109 29.4344 12.8 28.4 12.8H24.5V20.6ZM28.4 20.6C27.6287 20.6 26.8746 20.8287 26.2333 21.2573C25.5919 21.6858 25.0921 22.2949 24.7969 23.0075C24.5017 23.7202 24.4245 24.5043 24.5749 25.2608C24.7254 26.0174 25.0969 26.7123 25.6423 27.2577C26.1877 27.8031 26.8826 28.1746 27.6392 28.3251C28.3957 28.4755 29.1798 28.3983 29.8925 28.1031C30.6051 27.8079 31.2142 27.3081 31.6427 26.6667C32.0713 26.0254 32.3 25.2713 32.3 24.5C32.3 23.4656 31.8891 22.4737 31.1577 21.7423C30.4263 21.0109 29.4344 20.6 28.4 20.6Z" fill="#FFF"/>
</svg>
