<svg width="48" height="48" viewBox="0 0 48 48" fill="none" xmlns="http://www.w3.org/2000/svg">
<rect width="48" height="48" rx="2" fill="#333333"/>
<path d="M14.5364 30.8155L13.5831 30.2643L24.2154 11.8493L25.1687 12.4005L14.5364 30.8155Z" fill="white"/>
<path d="M13.3638 28.7927H34.6301V29.8951H13.3638V28.7927Z" fill="white"/>
<path d="M24.4216 35.5544L13.785 29.4132L14.3362 28.4599L24.9728 34.6011L24.4216 35.5544ZM33.662 19.5471L23.0246 13.4067L23.5758 12.4534L34.2124 18.5946L33.662 19.5471Z" fill="white"/>
<path d="M14.3388 19.5436L13.7876 18.5903L24.4338 12.4473L24.985 13.4007L14.3388 19.5436Z" fill="white"/>
<path d="M33.4662 30.8155L22.8322 12.3988L23.7855 11.8476L34.4195 30.2643L33.4662 30.8155ZM14.2071 17.8588H15.3095V30.1412H14.2071V17.8588ZM32.6914 17.8588H33.7938V30.1412H32.6914V17.8588Z" fill="white"/>
<path d="M24.2344 35.0873L23.7534 34.2535L33.0051 28.9123L33.4861 29.746L24.2344 35.0873Z" fill="white"/>
<path d="M35.2541 30.5C34.9461 31.0319 34.4399 31.42 33.8463 31.5793C33.2528 31.7387 32.6202 31.6563 32.0873 31.3502C31.5554 31.0422 31.1673 30.536 31.008 29.9424C30.8486 29.3489 30.931 28.7163 31.2371 28.1834C31.5451 27.6515 32.0513 27.2634 32.6448 27.1041C33.2384 26.9447 33.871 27.0271 34.4039 27.3332C35.5193 27.9771 35.898 29.3915 35.2532 30.5H35.2541ZM16.7568 19.8175C16.4488 20.3493 15.9426 20.7374 15.3491 20.8968C14.7555 21.0561 14.123 20.9738 13.59 20.6677C13.0579 20.3597 12.6696 19.8533 12.5103 19.2595C12.3509 18.6658 12.4335 18.033 12.7398 17.5C13.0478 16.9681 13.554 16.58 14.1476 16.4207C14.7411 16.2613 15.3737 16.3437 15.9066 16.6498C16.4385 16.9578 16.8266 17.464 16.986 18.0576C17.1453 18.6511 17.0629 19.2837 16.7568 19.8166V19.8175ZM12.7468 30.5C12.4407 29.9671 12.3583 29.3345 12.5176 28.741C12.677 28.1474 13.0651 27.6412 13.597 27.3332C14.1299 27.0271 14.7624 26.9447 15.356 27.1041C15.9496 27.2634 16.4558 27.6515 16.7638 28.1834C17.0699 28.7163 17.1522 29.3489 16.9929 29.9424C16.8335 30.536 16.4454 31.0422 15.9136 31.3502C14.7982 31.9872 13.3829 31.6102 12.7468 30.5009V30.5ZM31.244 19.8183C30.9379 19.2854 30.8555 18.6529 31.0149 18.0593C31.1743 17.4657 31.5624 16.9595 32.0942 16.6515C32.6272 16.3454 33.2597 16.263 33.8533 16.4224C34.4468 16.5818 34.9531 16.9699 35.261 17.5017C35.5671 18.0347 35.6495 18.6672 35.4902 19.2608C35.3308 19.8543 34.9427 20.3606 34.4108 20.6685C33.8779 20.9746 33.2454 21.057 32.6518 20.8977C32.0582 20.7383 31.552 20.3502 31.244 19.8183V19.8183ZM24.0004 37C23.542 37 23.0939 36.8641 22.7128 36.6094C22.3317 36.3547 22.0347 35.9927 21.8593 35.5692C21.6839 35.1457 21.6381 34.6797 21.7275 34.2301C21.817 33.7805 22.0378 33.3676 22.362 33.0435C22.6862 32.7195 23.0992 32.4988 23.5488 32.4095C23.9984 32.3202 24.4644 32.3662 24.8879 32.5417C25.3113 32.7173 25.6732 33.0144 25.9277 33.3956C26.1823 33.7769 26.3181 34.225 26.3179 34.6834C26.3163 35.2975 26.0716 35.8859 25.6373 36.32C25.203 36.7541 24.6145 36.9986 24.0004 37V37ZM24.0004 15.6349C23.696 15.6354 23.3944 15.5758 23.113 15.4594C22.8317 15.3431 22.576 15.1725 22.3607 14.9572C22.1454 14.7419 21.9747 14.4862 21.8584 14.2049C21.7421 13.9235 21.6825 13.6219 21.683 13.3175C21.683 12.7029 21.9271 12.1136 22.3616 11.6791C22.7961 11.2445 23.3855 11.0004 24 11.0004C24.6145 11.0004 25.2039 11.2445 25.6384 11.6791C26.0729 12.1136 26.317 12.7029 26.317 13.3175C26.3174 13.6218 26.2577 13.9232 26.1414 14.2044C26.0251 14.4856 25.8545 14.7411 25.6393 14.9563C25.4241 15.1715 25.1686 15.3421 24.8874 15.4584C24.6061 15.5747 24.3047 15.6344 24.0004 15.6341" fill="white"/>
</svg>
