<svg width="48" height="48" viewBox="0 0 48 48" fill="none" xmlns="http://www.w3.org/2000/svg">
<rect width="48" height="48" rx="2" fill="#333333"/>
<g clip-path="url(#clip0)">
<path d="M34.6642 23.5669C34.6642 22.2548 33.6005 21.1912 32.2884 21.1912C32.204 21.1912 32.1208 21.1957 32.0387 21.2043L35.3018 11.5802H21.4348L24.6933 21.196C24.6455 21.1931 24.5975 21.1912 24.5489 21.1912C23.2368 21.1912 22.1732 22.2548 22.1732 23.5669C22.1732 24.6275 22.8682 25.5254 23.8276 25.8309C23.3209 26.7086 22.6833 27.4991 21.9595 28.1819C20.9752 29.1105 19.8487 29.8146 18.6304 30.2485C17.1798 29.5033 16.4948 27.846 17.1129 26.393C17.1827 26.229 17.2539 26.0626 17.3221 25.897C18.3729 25.6517 19.156 24.7096 19.156 23.584C19.156 22.2719 18.0923 21.2082 16.7802 21.2082C15.4681 21.2082 14.4044 22.2719 14.4044 23.584C14.4044 24.3886 14.8048 25.0992 15.4167 25.529C14.8286 26.8679 13.9643 28.2691 13.695 29.893C13.3723 31.8393 13.694 33.9052 15.3772 35.0718C19.2975 37.7888 23.5528 33.3875 28.0395 32.2811C29.6655 31.8801 31.4504 31.9447 32.883 31.115C33.9588 30.4919 34.6681 29.4593 34.8694 28.2999C35.0682 27.1547 34.7783 26.0144 34.1117 25.0897C34.4565 24.6774 34.6642 24.1465 34.6642 23.5669ZM26.9245 23.5753C26.9245 23.5725 26.9248 23.5697 26.9248 23.5669C26.9248 22.7053 26.466 21.9508 25.7795 21.5343L28.373 16.29L30.971 21.5899C30.333 22.0159 29.9126 22.7423 29.9126 23.5669C29.9126 23.5843 29.9136 23.6013 29.9139 23.6186L26.9245 23.5753Z" fill="#333333"/>
<path d="M35.2444 23.5669C35.2444 22.1238 34.2046 20.9197 32.835 20.6625L36.1111 11H20.6254L23.9065 20.6821C22.5845 20.9763 21.5929 22.1577 21.5929 23.5669C21.5929 24.6253 22.1522 25.5549 22.9904 26.0772C22.5872 26.6778 22.1091 27.243 21.5612 27.7599C20.6924 28.5796 19.7243 29.2013 18.6807 29.6102C17.6296 28.9499 17.1853 27.7048 17.6468 26.62L17.6829 26.5352C17.7055 26.4821 17.7281 26.4288 17.7507 26.3756C18.9052 25.973 19.7362 24.8741 19.7362 23.584C19.7362 21.954 18.4101 20.628 16.7801 20.628C15.1501 20.628 13.8241 21.954 13.8241 23.584C13.8241 24.4067 14.1622 25.1517 14.7064 25.6881C14.6078 25.8985 14.504 26.1122 14.3974 26.3312C13.8998 27.3533 13.3358 28.5117 13.1225 29.7981C12.6988 32.3529 13.3821 34.3951 15.0466 35.5487C16.0566 36.2487 17.0823 36.5241 18.1144 36.524C20.058 36.5239 22.024 35.5475 23.9469 34.5924C25.3319 33.9046 26.7638 33.1933 28.1784 32.8444C28.7047 32.7146 29.2463 32.6365 29.8197 32.5538C30.9566 32.3898 32.1324 32.2202 33.1738 31.6171C34.3809 30.9179 35.2073 29.745 35.441 28.3992C35.6416 27.2439 35.4001 26.087 34.8113 25.1056C35.0858 24.6571 35.2444 24.1303 35.2444 23.5669ZM34.0839 23.5669C34.0839 24.557 33.2785 25.3626 32.2883 25.3626C31.2983 25.3626 30.4928 24.557 30.4928 23.5669C30.4928 22.5769 31.2983 21.7714 32.2883 21.7714C33.2785 21.7714 34.0839 22.5769 34.0839 23.5669ZM34.4923 12.1604L31.5994 20.6929C31.474 20.7229 31.3518 20.7608 31.233 20.8064L28.3752 14.9765L25.5091 20.7719C25.3852 20.7292 25.2577 20.6941 25.127 20.6681L22.244 12.1604H34.4923ZM24.5489 21.7714C25.539 21.7714 26.3444 22.5769 26.3444 23.5669C26.3444 24.557 25.539 25.3626 24.5489 25.3626C23.5589 25.3626 22.7533 24.557 22.7533 23.5669C22.7533 22.5769 23.5589 21.7714 24.5489 21.7714ZM16.7801 21.7885C17.7703 21.7885 18.5757 22.5939 18.5757 23.584C18.5757 24.5741 17.7703 25.3796 16.7801 25.3796C15.7901 25.3796 14.9846 24.5741 14.9846 23.584C14.9846 22.5939 15.7901 21.7885 16.7801 21.7885ZM34.2976 28.2007C34.1229 29.2071 33.5013 30.0863 32.5922 30.6128C31.7447 31.1037 30.7292 31.2502 29.654 31.4052C29.078 31.4883 28.4824 31.5742 27.9005 31.7178C26.362 32.0971 24.8718 32.8373 23.4307 33.5531C20.5468 34.9855 18.0561 36.2225 15.7077 34.5949C13.9875 33.4027 14.0669 31.1968 14.2673 29.9879C14.453 28.868 14.9551 27.8366 15.4408 26.8391C15.5248 26.6665 15.6064 26.4974 15.6865 26.3294C15.9274 26.4258 16.1835 26.4914 16.4504 26.5212C15.9561 28.1526 16.7335 29.9264 18.3651 30.7646L18.5884 30.8793L18.8249 30.7951C20.1148 30.3358 21.3033 29.5986 22.3576 28.604C23.0391 27.9611 23.6247 27.2498 24.1062 26.4898C24.2507 26.5115 24.3985 26.523 24.5489 26.523C26.1788 26.523 27.5049 25.197 27.5049 23.5669C27.5049 22.6903 27.121 21.902 26.5129 21.3602L28.3706 17.6035L30.2472 21.4318C29.6841 21.9704 29.3323 22.7281 29.3323 23.5669C29.3323 25.197 30.6583 26.523 32.2883 26.523C32.9146 26.523 33.4955 26.3267 33.974 25.9932C34.3062 26.6733 34.43 27.4385 34.2976 28.2007Z" fill="white"/>
</g>
<defs>
<clipPath id="clip0">
<rect width="23.1111" height="26" fill="white" transform="translate(13 11)"/>
</clipPath>
</defs>
</svg>
