<svg width="48" height="48" viewBox="0 0 48 48" fill="none" xmlns="http://www.w3.org/2000/svg">
<rect width="48" height="48" rx="2" fill="#333333"/>
<g clip-path="url(#clip0)">
<path d="M11.7833 28.9342C11.5207 28.9342 11.2974 28.8467 11.1136 28.6717C10.9298 28.4922 10.8378 28.279 10.8378 28.0322C10.8378 27.7808 10.9298 27.5655 11.1136 27.386C11.2974 27.2064 11.5207 27.1167 11.7833 27.1167C12.0503 27.1167 12.2757 27.2064 12.4596 27.386C12.6478 27.5655 12.7419 27.7808 12.7419 28.0322C12.7419 28.279 12.6478 28.4922 12.4596 28.6717C12.2757 28.8467 12.0503 28.9342 11.7833 28.9342Z" fill="white"/>
<path d="M22.2821 28.7861H20.575L16.0776 21.6908C15.9638 21.5113 15.8696 21.325 15.7953 21.132H15.7558C15.7909 21.3385 15.8084 21.7806 15.8084 22.4582V28.7861H14.2982V19.1327H16.1169L20.4634 26.0597C20.6473 26.347 20.7655 26.5445 20.818 26.6521H20.8442C20.8005 26.3964 20.7786 25.9633 20.7786 25.3529V19.1327H22.2821V28.7861Z" fill="white"/>
<path d="M29.636 28.7861H24.3506V19.1327H29.4259V20.4925H25.9133V23.2256H29.1502V24.5787H25.9133V27.433H29.636V28.7861Z" fill="white"/>
<path d="M37.1474 20.4925H34.4423V28.7861H32.8796V20.4925H30.1812V19.1327H37.1474V20.4925Z" fill="white"/>
</g>
<defs>
<clipPath id="clip0">
<rect width="26" height="10.0816" fill="white" transform="translate(11 19)"/>
</clipPath>
</defs>
</svg>
