<svg width="48" height="48" viewBox="0 0 48 48" fill="none" xmlns="http://www.w3.org/2000/svg">
<rect width="48" height="48" rx="2" fill="#333333"/>
<g clip-path="url(#clip0)">
<path d="M16.5117 18.6392H23.2872V19.1717H17.1328V23.1798H22.9202V23.7123H17.1328V28.1128H23.3577V28.6453H16.5117V18.6392ZM23.8941 18.6392H24.614L27.8041 23.0396L31.0648 18.6392L35.4999 13.0496L28.2135 23.5021L31.9682 28.6453H31.2201L27.8041 23.9646L24.3741 28.6453H23.64L27.423 23.5021L23.8941 18.6392ZM32.2364 19.1717V18.6392H39.9576V19.1717H36.4005V28.6453H35.7794V19.1717H32.2364Z" fill="white"/>
<path d="M8.03528 18.6392H8.81163L19.5171 34.4809L15.0931 28.6453L8.68459 19.3959L8.65636 28.6453H8.03528V18.6392Z" fill="white"/>
</g>
<defs>
<clipPath id="clip0">
<rect width="32" height="21" fill="white" transform="translate(8 13)"/>
</clipPath>
</defs>
</svg>
