<svg width="48" height="48" viewBox="0 0 48 48" fill="none" xmlns="http://www.w3.org/2000/svg">
<rect width="48" height="48" rx="2" fill="#333333"/>
<g clip-path="url(#clip0)">
<path d="M37.0876 24.7573C37.0876 23.0368 34.9165 21.4062 31.588 20.3951C32.3561 17.0281 32.0147 14.3493 30.5104 13.4917C30.1637 13.2905 29.7583 13.1952 29.3156 13.1952V14.3758C29.5609 14.3758 29.7583 14.4234 29.9237 14.5134C30.6491 14.9264 30.9638 16.4987 30.7185 18.521C30.6598 19.0186 30.5638 19.5427 30.4464 20.0774C29.4009 19.8233 28.2594 19.6274 27.0592 19.5004C26.339 18.521 25.5923 17.6316 24.8401 16.8534C26.5791 15.2493 28.2114 14.3705 29.3209 14.3705V13.1899C27.854 13.1899 25.9336 14.2275 23.992 16.0275C22.0503 14.2381 20.13 13.2111 18.6631 13.2111V14.3917C19.7673 14.3917 21.4049 15.2652 23.1438 16.8587C22.397 17.6369 21.6502 18.521 20.9408 19.5004C19.7352 19.6274 18.5937 19.8233 17.5482 20.0827C17.4255 19.5533 17.3348 19.0398 17.2708 18.5474C17.0201 16.5251 17.3295 14.9528 18.0496 14.5346C18.2096 14.4393 18.4177 14.397 18.6631 14.397V13.2164C18.215 13.2164 17.8096 13.3117 17.4575 13.5129C15.9586 14.3705 15.6225 17.044 16.396 20.4003C13.0781 21.4168 10.9177 23.0421 10.9177 24.7573C10.9177 26.4779 13.0888 28.1084 16.4173 29.1196C15.6492 32.4865 15.9906 35.1653 17.4949 36.0229C17.8416 36.2241 18.247 36.3194 18.6951 36.3194C20.162 36.3194 22.0823 35.2818 24.024 33.4818C25.9657 35.2712 27.886 36.2982 29.3529 36.2982C29.801 36.2982 30.2064 36.2029 30.5584 36.0018C32.0574 35.1441 32.3934 32.4707 31.62 29.1143C34.9272 28.1031 37.0876 26.4726 37.0876 24.7573ZM30.1424 21.2262C29.945 21.9091 29.6996 22.6132 29.4222 23.3173C29.2035 22.8938 28.9742 22.4703 28.7235 22.0468C28.4781 21.6233 28.2167 21.2103 27.9553 20.808C28.7128 20.9192 29.4436 21.0568 30.1424 21.2262ZM27.6993 26.8643C27.2832 27.579 26.8565 28.2566 26.4137 28.8866C25.6189 28.9554 24.8135 28.9925 24.0026 28.9925C23.1972 28.9925 22.3917 28.9554 21.6022 28.8919C21.1595 28.2619 20.7274 27.5896 20.3113 26.8802C19.9059 26.1867 19.5379 25.4826 19.2018 24.7732C19.5325 24.0638 19.9059 23.3544 20.306 22.6609C20.7221 21.9462 21.1488 21.2686 21.5916 20.6386C22.3864 20.5698 23.1918 20.5327 24.0026 20.5327C24.8081 20.5327 25.6136 20.5698 26.4031 20.6333C26.8458 21.2633 27.2779 21.9356 27.694 22.645C28.0994 23.3385 28.4674 24.0426 28.8035 24.752C28.4674 25.4614 28.0994 26.1708 27.6993 26.8643ZM29.4222 26.1761C29.7103 26.8855 29.9557 27.5949 30.1584 28.2831C29.4596 28.4525 28.7235 28.5955 27.9607 28.7066C28.222 28.299 28.4834 27.8808 28.7288 27.452C28.9742 27.0284 29.2035 26.5996 29.4222 26.1761ZM24.0133 31.8248C23.5172 31.3166 23.0211 30.7501 22.5304 30.1307C23.0105 30.1519 23.5012 30.1678 23.9973 30.1678C24.4987 30.1678 24.9948 30.1572 25.4802 30.1307C25.0002 30.7501 24.5041 31.3166 24.0133 31.8248ZM20.0446 28.7066C19.2872 28.5955 18.5564 28.4578 17.8576 28.2884C18.055 27.6055 18.3003 26.9014 18.5777 26.1973C18.7964 26.6208 19.0258 27.0443 19.2765 27.4678C19.5272 27.8914 19.7833 28.3043 20.0446 28.7066ZM23.9866 17.6898C24.4827 18.198 24.9788 18.7645 25.4696 19.3839C24.9895 19.3627 24.4987 19.3468 24.0026 19.3468C23.5012 19.3468 23.0051 19.3574 22.5197 19.3839C22.9998 18.7645 23.4959 18.198 23.9866 17.6898ZM20.0393 20.808C19.7779 21.2156 19.5165 21.6338 19.2712 22.0627C19.0258 22.4862 18.7964 22.9097 18.5777 23.3332C18.2897 22.6238 18.0443 21.9144 17.8416 21.2262C18.5404 21.0621 19.2765 20.9192 20.0393 20.808ZM15.2118 27.4361C13.3235 26.6367 12.1019 25.5885 12.1019 24.7573C12.1019 23.9261 13.3235 22.8726 15.2118 22.0785C15.6705 21.8827 16.172 21.708 16.6894 21.5439C16.9934 22.5815 17.3935 23.6615 17.8896 24.7679C17.3988 25.869 17.0041 26.9437 16.7054 27.9761C16.1773 27.8119 15.6759 27.6319 15.2118 27.4361ZM18.0816 35.0012C17.3562 34.5883 17.0414 33.0159 17.2868 30.9936C17.3455 30.496 17.4415 29.9719 17.5589 29.4372C18.6044 29.6913 19.7459 29.8872 20.9461 30.0142C21.6662 30.9936 22.413 31.883 23.1652 32.6612C21.4262 34.2653 19.7939 35.1441 18.6844 35.1441C18.4444 35.1388 18.2417 35.0912 18.0816 35.0012ZM30.7345 30.9672C30.9852 32.9895 30.6758 34.5618 29.9557 34.98C29.7956 35.0753 29.5876 35.1177 29.3422 35.1177C28.238 35.1177 26.6004 34.2441 24.8615 32.6507C25.6083 31.8724 26.3551 30.9883 27.0645 30.009C28.2701 29.8819 29.4116 29.686 30.4571 29.4266C30.5798 29.9613 30.6758 30.4748 30.7345 30.9672ZM32.7882 27.4361C32.3294 27.6319 31.828 27.8066 31.3106 27.9708C31.0065 26.9331 30.6065 25.8532 30.1104 24.7467C30.6011 23.6456 30.9959 22.5709 31.2946 21.5386C31.8227 21.7027 32.3241 21.8827 32.7935 22.0785C34.6818 22.8779 35.9034 23.9261 35.9034 24.7573C35.898 25.5885 34.6765 26.642 32.7882 27.4361Z" fill="white"/>
<path d="M23.9973 27.1767C25.3437 27.1767 26.4351 26.0935 26.4351 24.7573C26.4351 23.4211 25.3437 22.338 23.9973 22.338C22.651 22.338 21.5596 23.4211 21.5596 24.7573C21.5596 26.0935 22.651 27.1767 23.9973 27.1767Z" fill="white"/>
</g>
<defs>
<clipPath id="clip0">
<rect width="26" height="23.6364" fill="white" transform="translate(11 13)"/>
</clipPath>
</defs>
</svg>
