<svg width="48" height="48" viewBox="0 0 48 48" fill="none" xmlns="http://www.w3.org/2000/svg">
<rect width="48" height="48" rx="2" fill="#333333"/>
<path fill-rule="evenodd" clip-rule="evenodd" d="M25.7808 28.4169V31.8301C26.3357 32.1146 26.9919 32.3278 27.7496 32.4701C28.5072 32.6123 29.3057 32.6834 30.1451 32.6834C30.9633 32.6834 31.7404 32.6052 32.4767 32.4487C33.213 32.2923 33.8586 32.0345 34.4135 31.6754C34.9683 31.3164 35.4076 30.847 35.7313 30.2675C36.0549 29.6879 36.2168 28.9715 36.2168 28.1182C36.2168 27.4996 36.1243 26.9574 35.9394 26.4916C35.7544 26.0259 35.4877 25.6117 35.139 25.249C34.7905 24.8863 34.3725 24.561 33.8853 24.273C33.398 23.985 32.8484 23.713 32.2366 23.4571C31.7885 23.2721 31.3865 23.0926 31.0308 22.9184C30.6751 22.7441 30.3728 22.5664 30.1238 22.3851C29.8748 22.2037 29.6827 22.0117 29.5476 21.8091C29.4125 21.6064 29.3448 21.3771 29.3448 21.1211C29.3448 20.8865 29.4053 20.6749 29.5263 20.4864C29.6472 20.298 29.8179 20.1363 30.0384 20.0011C30.259 19.8661 30.5293 19.7611 30.8494 19.6865C31.1696 19.6118 31.5252 19.5745 31.9165 19.5745C32.201 19.5745 32.5016 19.5958 32.8181 19.6385C33.1347 19.6811 33.453 19.7469 33.7732 19.8358C34.0933 19.9247 34.4045 20.0367 34.7069 20.1718C35.0092 20.3069 35.2884 20.4633 35.5445 20.6411V17.4519C35.0253 17.2528 34.4579 17.1052 33.8426 17.0092C33.2272 16.9132 32.5211 16.8652 31.7244 16.8652C30.9134 16.8652 30.1451 16.9524 29.4195 17.1266C28.694 17.3008 28.0555 17.5728 27.5041 17.9425C26.9528 18.3123 26.5171 18.7834 26.197 19.3558C25.8769 19.9282 25.7168 20.6126 25.7168 21.4091C25.7168 22.4259 26.0103 23.2935 26.5972 24.0117C27.184 24.7299 28.075 25.3378 29.2702 25.8356C29.7397 26.0276 30.1772 26.216 30.5827 26.4009C30.9881 26.5858 31.3385 26.7778 31.6337 26.9769C31.9289 27.176 32.1619 27.3929 32.3327 27.6276C32.5034 27.8622 32.5888 28.1289 32.5888 28.4276C32.5888 28.648 32.5354 28.8524 32.4287 29.0409C32.322 29.2293 32.1601 29.3928 31.9432 29.5315C31.7262 29.6702 31.4559 29.7786 31.1322 29.8568C30.8085 29.9351 30.4297 29.9741 29.9958 29.9741C29.2559 29.9741 28.5232 29.8444 27.7976 29.5848C27.072 29.3253 26.3997 28.936 25.7808 28.4169ZM20.0427 20.0072H24.4213V17.2061H12.2168V20.0072H16.574V32.4789H20.0427V20.0072Z" fill="white"/>
</svg>
