<svg width="32" height="32" viewBox="0 0 32 32" fill="none" xmlns="http://www.w3.org/2000/svg">
<g clip-path="url(#clip0)">
<path d="M31.6732 7.33972L31.6044 7.27857C31.0103 6.86279 30.1644 6.64396 29.1594 6.64396C27.562 6.64396 25.9075 7.18569 25.1614 7.69383L19.281 11.7087L7.81782 14.1435C7.71747 14.1654 7.62433 14.2046 7.53927 14.2625C7.31671 14.4167 7.18836 14.6791 7.20303 14.9486C7.22596 15.3356 7.52167 15.6432 7.90324 15.6786L12.751 16.1668L8.02571 19.3924C6.61881 18.7465 5.2832 18.1199 4.05459 17.5317C2.15058 16.6191 0.907573 16.4585 0.323446 17.0429C-0.284679 17.6514 0.111553 18.691 0.328512 19.008L4.8803 24.9093C5.03344 25.1329 5.20934 25.261 5.42043 25.2995C5.7708 25.3598 6.07504 25.15 6.39208 24.9253L7.5446 24.1312L13.9473 21.0222L13.0104 24.3686C12.9076 24.7395 13.087 25.1243 13.4373 25.286C13.5369 25.3319 13.649 25.3559 13.7597 25.3559C13.9177 25.3559 14.069 25.3089 14.2008 25.2208C14.286 25.1637 14.3542 25.0922 14.4111 25.0057L18.0748 19.438L20.3159 16.8159L30.2537 10.0313C30.4058 9.92803 30.5542 9.83275 30.703 9.73667C31.0457 9.51811 31.3697 9.31075 31.603 9.0754C32.1051 8.57499 32.1339 8.01646 31.6732 7.33972Z" fill="#DDDDDD"/>
</g>
<defs>
<clipPath id="clip0">
<rect width="32" height="32" fill="white"/>
</clipPath>
</defs>
</svg>
