<svg width="26" height="26" viewBox="0 0 26 26" fill="none" xmlns="http://www.w3.org/2000/svg">
<g clip-path="url(#clip0)">
<path d="M23.9775 7.21047C24.0014 6.01825 23.7395 4.81281 23.5269 3.62585C23.4537 3.21726 23.3053 2.82243 23.1592 2.43502C23.0492 2.14337 22.7242 1.95765 22.4249 2.02149C22.2311 2.06276 22.057 2.10295 21.8881 2.15852C20.12 2.7402 18.4828 3.59091 16.9101 4.57929C16.6988 4.71192 16.3914 4.7598 16.1363 4.7411C15.526 4.6965 14.9224 4.54463 14.3124 4.51572C12.8026 4.44419 11.2959 4.49014 9.79993 4.7518C9.59195 4.78812 9.31815 4.75234 9.14537 4.64066C7.43037 3.53094 5.64603 2.58114 3.63884 2.04788C3.33752 1.96781 3.02744 2.0102 2.95124 2.12988C2.9047 2.20308 2.86262 2.27901 2.83951 2.36043C2.62268 3.12231 2.36569 3.88036 2.23967 4.65846C2.08946 5.58709 1.94501 6.54382 2.01627 7.47132C2.06114 8.05435 1.90014 8.41262 1.58156 8.82175C0.51284 10.1947 0.031599 11.773 0.00215083 13.5034C-0.0231611 14.9834 0.172725 16.4257 0.623439 17.8406C1.31378 20.0085 2.64686 21.6354 4.6541 22.6939C6.30446 23.5642 8.10282 23.8996 9.94303 23.9643C11.6017 24.0224 13.2635 23.9731 14.924 23.9824C16.5885 23.9918 18.23 23.8435 19.8222 23.3246C21.4159 22.8053 22.795 21.9675 23.865 20.6501C25.4105 18.7472 25.8917 16.5055 25.9905 14.1327C26.0662 12.3181 25.6964 10.6111 24.6337 9.12662C24.2029 8.52435 23.9613 8.00705 23.9775 7.21047ZM20.7732 21.1146C20.0594 21.7317 19.1866 22.0239 18.2932 22.2374C16.5403 22.6562 14.7554 22.7605 12.9647 22.6824C11.1947 22.7591 9.44502 22.6488 7.72287 22.2435C6.45251 21.9447 5.29275 21.4423 4.48438 20.3518C3.19806 18.6165 2.86928 15.3139 4.9948 13.5114C5.53683 13.0519 6.14135 12.7602 6.85565 12.7149C7.64397 12.6645 8.43255 12.5663 9.22027 12.5756C11.2074 12.5993 13.1937 12.6981 15.1805 12.7129C16.088 12.7195 17.0018 12.5079 17.9026 12.5624C18.7211 12.612 19.5818 12.7627 20.3247 13.0921C21.5632 13.6413 22.2298 14.7548 22.4312 16.059C22.7311 17.9982 22.3354 19.7633 20.7732 21.1146Z" fill="#DDDDDD"/>
<path d="M17.5352 19.8651C18.5811 19.8651 19.429 18.7319 19.429 17.334C19.429 15.9361 18.5811 14.8029 17.5352 14.8029C16.4892 14.8029 15.6413 15.9361 15.6413 17.334C15.6413 18.7319 16.4892 19.8651 17.5352 19.8651Z" fill="#DDDDDD"/>
<path d="M8.49849 19.8651C9.54458 19.8651 10.3926 18.7319 10.3926 17.334C10.3926 15.9361 9.54458 14.8029 8.49849 14.8029C7.45239 14.8029 6.60437 15.9361 6.60437 17.334C6.60437 18.7319 7.45239 19.8651 8.49849 19.8651Z" fill="#DDDDDD"/>
</g>
<defs>
<clipPath id="clip0">
<rect width="26" height="26" fill="white"/>
</clipPath>
</defs>
</svg>
