<svg width="26" height="26" viewBox="0 0 26 26" fill="none" xmlns="http://www.w3.org/2000/svg">
<path fill-rule="evenodd" clip-rule="evenodd" d="M6.11877 3.65633C6.11877 5.24316 4.93766 6.51288 3.04119 6.51288H3.00644C1.18046 6.51288 0 5.24316 0 3.65633C0 2.03594 1.21641 0.801758 3.07704 0.801758C4.93766 0.801758 6.08347 2.03594 6.11877 3.65633ZM5.76056 8.76849V25.2947H0.321594V8.76849H5.76056ZM25.3751 25.2947L25.3754 15.8191C25.3754 10.743 22.6922 8.38049 19.1131 8.38049C16.2254 8.38049 14.9326 9.98452 14.2107 11.1098V8.769H8.77112C8.84281 10.3197 8.77112 25.2951 8.77112 25.2951H14.2107V16.0656C14.2107 15.5717 14.246 15.0789 14.3898 14.7253C14.7829 13.7386 15.6779 12.717 17.1805 12.717C19.1494 12.717 19.9365 14.2324 19.9365 16.4532V25.2947H25.3751Z" fill="#DDDDDD"/>
</svg>
